PathFileType	4	(X/Y/Z)	OpenSim_Sub05_CSBaseline_Accel.trc
DataRate	CameraRate	NumFrames	NumMarkers	Units	OrigDataRate	OrigDataStartFrame	OrigNumFrames
100	100	17	8	m	100	9238	10557
Frame#	Time	torso_imu_offset_imu	pelvis_imu_offset_imu	tibia_r_imu_offset_imu	femur_r_imu_offset_imu	tibia_l_imu_offset_imu	femur_l_imu_offset_imu	toes_r_imu_offset_imu	toes_l_imu_offset_imu
				X1	Y1	Z1	X2	Y2	Z2	X3	Y3	Z3	X4	Y4	Z4	X5	Y5	Z5	X6	Y6	Z6	X7	Y7	Z7	X8		Y8	Z8	

9238	92.37000000	8.44705090	2.75962964	5.49500348	9.03391634	-2.51806187	2.36515645	4.27655287	6.18683714	1.51577110	7.38849325	-1.11601679	4.76686828	9.88275440	-0.70894371	-0.28699269	9.78575676	0.84630033	-0.25429702	4.93023143	-0.38007357	9.33725216	4.89154245	1.77087823	11.04939478
9239	92.38000000	8.44953362	2.70212073	5.49900266	9.30953362	-2.58857398	2.35091338	4.16048971	5.89632881	1.80605873	7.17003066	-0.65402064	4.86565222	9.83907575	-1.11186136	-0.33258477	9.90286899	0.82335235	-0.28531407	5.74663573	-0.35580841	9.41132317	4.87829065	1.83410959	11.15413580
9240	92.39000000	8.55137843	2.68229265	5.64751758	9.40704162	-2.50190466	2.30607794	4.32075696	5.50901686	1.90717940	6.98906782	-0.13828644	4.80834694	9.64789270	-1.48577857	-0.69175145	9.76318529	0.96123109	-0.27168687	6.20487443	-0.45351857	9.42223962	4.80482747	1.94124246	11.29485002
9241	92.40000000	8.63539624	2.79377740	5.74982629	9.31637260	-2.42160827	2.26351968	5.07369773	4.88920895	1.89453510	6.75247384	0.23135034	4.60252304	9.67204929	-1.72410066	-0.72438406	9.54599684	1.07732094	-0.24645042	6.82223879	-0.45418599	9.49681758	5.07175418	1.84744568	10.95830149
9242	92.41000000	8.55564615	2.97596763	5.82365678	9.13348569	-2.40312123	2.19516526	6.08209986	3.90072988	2.25374598	6.57635178	0.44718800	4.38128798	9.71253713	-1.60387584	-0.77487375	9.51283488	1.05340285	-0.09917477	7.90550033	-0.71970126	9.58870528	5.11110199	2.00278334	10.90240412
9243	92.42000000	8.49882916	3.06114035	5.82925642	9.02292871	-2.43257820	2.13714253	7.41345173	3.47351851	2.62944626	6.43503736	0.55047014	4.20358817	9.67623582	-1.77103856	-0.96012945	9.57857693	1.02385051	-0.35680083	8.89978068	-1.48986362	9.27181235	5.11486080	2.16943347	11.04050379
9244	92.43000000	8.34966333	3.12514369	5.84463061	8.96568078	-2.41310652	2.05517530	9.57274096	4.66965748	2.46236568	6.42877007	0.58202822	4.09755947	9.65016095	-2.15619978	-1.01707456	9.66528190	1.11397658	-0.37343477	9.82426156	-2.28229663	9.03721926	4.88909643	2.24283528	10.95836989
9245	92.44000000	8.24172263	3.10068739	5.71408573	8.93806686	-2.30311251	1.96997562	11.39425484	5.87269026	0.86099492	6.49142692	0.36727664	4.17381627	9.69327598	-2.44097947	-1.08901852	9.92721933	1.21161658	-0.26354728	11.33056302	-2.66734655	9.28785201	4.79993292	2.36666640	10.93827396
9246	92.45000000	8.16417542	3.07904725	5.62163957	9.00976392	-2.31168322	1.86170725	11.95236930	5.95140360	-0.64875893	6.38699732	-0.27161283	4.25091234	9.56154872	-2.45907189	-0.78802456	10.07874770	1.19442843	-0.32493922	14.26311114	-3.01017966	10.04883865	5.02985808	2.11099706	10.83533448
9247	92.46000000	8.13496456	2.98881949	5.52673690	9.05178225	-2.44034755	1.84143204	11.67156219	5.15686704	-0.22884722	6.40276483	-1.17465824	4.56806148	9.70275437	-2.35572038	-0.44211980	9.86703288	1.36320702	-0.37226059	17.85278777	-3.29334856	10.21260210	5.28194118	1.79354595	10.76791532
9248	92.47000000	8.19178197	3.05747005	5.51101143	9.14795007	-2.54185864	1.96721069	11.20890092	4.57941957	0.89721071	6.74137323	-1.98403589	5.06568054	9.77724274	-1.63679085	-0.32745935	9.36654942	1.48624923	-0.06474510	19.89274125	-3.38422561	9.02776848	4.61515053	1.79511814	11.09424045
9249	92.48000000	8.40665750	3.30315110	5.57747675	9.15921413	-2.68729186	2.14463829	11.46119916	3.85411387	2.11922045	7.76705832	-2.93239368	5.45607696	10.04612795	-0.04922074	-0.03125681	9.24224820	1.27931367	-0.02612203	20.76310085	-3.02445453	6.91105920	4.42129768	1.92066457	11.22402424
9250	92.49000000	8.57722118	3.44815824	5.66528935	9.03236109	-2.97888578	2.46808534	12.57931745	3.26726442	2.33814339	9.42415757	-4.22697071	6.11353028	10.36366123	1.01897710	-0.36788636	9.52461334	1.01450774	-0.07740339	21.10026020	-2.10127409	4.44663782	4.77103291	2.28759854	11.27891318
9251	92.50000000	8.56842724	3.52886208	5.75443060	8.85682328	-3.17029458	2.63250974	13.06862649	3.63242842	0.86243238	11.23904786	-5.51538096	7.23923994	10.57295984	0.99227347	-0.62995060	9.73371845	0.72727315	-0.28354504	20.93503573	-0.65167061	1.82096532	4.95828427	2.10810280	11.14581122
9252	92.51000000	8.58138443	3.43756257	5.81757648	8.65760748	-3.18359361	2.66463481	12.54696945	4.05890591	-0.41226270	12.19486893	-6.30094650	8.19299568	10.52962377	0.33147158	-1.02288344	9.67873554	0.55217581	-0.58610106	19.84857330	0.64257677	-1.06847122	4.82089158	2.03243378	11.08199072
9253	92.52000000	8.59759435	3.41255291	5.69930953	8.50269154	-3.12703535	2.75877935	11.65909971	4.29519005	-0.99106081	11.89930960	-6.99565304	8.20086216	10.48757123	-0.48102183	-1.54156964	9.80874395	0.69365934	-0.67290173	18.94847177	1.50256051	-3.53377238	4.40545505	2.63733033	11.33339790
9254	92.53000000	8.52208344	3.43054529	5.53764568	8.65219085	-2.89837340	2.77316027	10.73134448	3.89929986	-0.85464155	10.88979215	-7.87667154	7.01620024	10.60145770	-0.13325067	-1.36280701	9.93541644	1.05261970	-0.61649958	18.70616369	2.59146169	-5.44431031	4.66508546	2.96554966	11.34786562
